# xmcd
#
# Track frame offsets:
# 150
# 16300
# 29362
# 46507
# 62287
# 81927
# 97412
# 112540
# 131982
# 145212
# 161795
#
# Disc length: 2337 seconds
#
# Revision: 1
# Processed by: cddbd v1.5.1PL0 Copyright (c) Steve Scherf et al.
# Submitted via: Easy CD Ripper 1.45
#
DISCID=8a091f0b
DTITLE=The Mavericks - Music for All Occasions
DYEAR=1995
DGENRE=Country
TTITLE0=Foolish Heart
TTITLE1=The Writing On The Wall 
TTITLE2=Here comes The Rain
TTITLE3=Missing You
TTITLE4=All You Ever Do Is Bring Me Dow
TTITLE5=My Secret Flame
TTITLE6=The Writing On The Wall
TTITLE7=Loving You 
TTITLE8=If You Only Knew 
TTITLE9=I'm Not Gonna Cry For You
TTITLE10=Somethin' Stupid-w/ Trisha Y.
EXTD=
EXTT0=
EXTT1=
EXTT2=
EXTT3=
EXTT4=
EXTT5=
EXTT6=
EXTT7=
EXTT8=
EXTT9=
EXTT10=
PLAYORDER=
